<mxfile host="Electron" modified="2025-09-03T23:34:32.255Z" agent="Mozilla/5.0 (Windows NT 10.0; Win64; x64) AppleWebKit/537.36 (KHTML, like Gecko) draw.io/21.2.1 Chrome/112.0.5615.87 Electron/24.1.2 Safari/537.36" etag="jgz9CKQGTPc7eLLTdchD" version="21.2.1" type="device">
  <diagram name="PÃ¡gina-1" id="gjPFH6qhqERszsmAGIeW">
    <mxGraphModel dx="2195" dy="2839" grid="1" gridSize="10" guides="1" tooltips="1" connect="1" arrows="1" fold="1" page="1" pageScale="1" pageWidth="827" pageHeight="1169" math="0" shadow="0">
      <root>
        <mxCell id="0" />
        <mxCell id="1" parent="0" />
        <mxCell id="IjSkQmt7Pv5R0Hn1wKeA-27" style="edgeStyle=orthogonalEdgeStyle;rounded=0;orthogonalLoop=1;jettySize=auto;html=1;exitX=0.5;exitY=0;exitDx=0;exitDy=0;entryX=0.5;entryY=1;entryDx=0;entryDy=0;endArrow=none;endFill=0;" parent="1" source="IjSkQmt7Pv5R0Hn1wKeA-3" target="IjSkQmt7Pv5R0Hn1wKeA-8" edge="1">
          <mxGeometry relative="1" as="geometry" />
        </mxCell>
        <mxCell id="IjSkQmt7Pv5R0Hn1wKeA-40" style="edgeStyle=orthogonalEdgeStyle;rounded=0;orthogonalLoop=1;jettySize=auto;html=1;exitX=0;exitY=0.75;exitDx=0;exitDy=0;entryX=1;entryY=0.5;entryDx=0;entryDy=0;endArrow=none;endFill=0;" parent="1" source="IjSkQmt7Pv5R0Hn1wKeA-3" target="IjSkQmt7Pv5R0Hn1wKeA-38" edge="1">
          <mxGeometry relative="1" as="geometry">
            <Array as="points">
              <mxPoint x="360" y="195" />
              <mxPoint x="360" y="335" />
            </Array>
          </mxGeometry>
        </mxCell>
        <mxCell id="IjSkQmt7Pv5R0Hn1wKeA-63" style="edgeStyle=orthogonalEdgeStyle;rounded=0;orthogonalLoop=1;jettySize=auto;html=1;exitX=0.25;exitY=0;exitDx=0;exitDy=0;entryX=1;entryY=0;entryDx=0;entryDy=0;endArrow=none;endFill=0;" parent="1" source="IjSkQmt7Pv5R0Hn1wKeA-3" target="IjSkQmt7Pv5R0Hn1wKeA-13" edge="1">
          <mxGeometry relative="1" as="geometry">
            <Array as="points">
              <mxPoint x="380" y="110" />
              <mxPoint x="-30" y="110" />
            </Array>
          </mxGeometry>
        </mxCell>
        <mxCell id="IjSkQmt7Pv5R0Hn1wKeA-113" style="edgeStyle=orthogonalEdgeStyle;rounded=0;orthogonalLoop=1;jettySize=auto;html=1;exitX=1;exitY=0.25;exitDx=0;exitDy=0;entryX=0;entryY=0.5;entryDx=0;entryDy=0;endArrow=none;endFill=0;" parent="1" source="IjSkQmt7Pv5R0Hn1wKeA-3" target="IjSkQmt7Pv5R0Hn1wKeA-90" edge="1">
          <mxGeometry relative="1" as="geometry">
            <Array as="points">
              <mxPoint x="470" y="130" />
              <mxPoint x="550" y="130" />
              <mxPoint x="550" y="10" />
            </Array>
          </mxGeometry>
        </mxCell>
        <mxCell id="IjSkQmt7Pv5R0Hn1wKeA-123" style="edgeStyle=orthogonalEdgeStyle;rounded=0;orthogonalLoop=1;jettySize=auto;html=1;exitX=0;exitY=0.5;exitDx=0;exitDy=0;entryX=1;entryY=0.5;entryDx=0;entryDy=0;endArrow=none;endFill=0;" parent="1" source="IjSkQmt7Pv5R0Hn1wKeA-3" target="IjSkQmt7Pv5R0Hn1wKeA-122" edge="1">
          <mxGeometry relative="1" as="geometry" />
        </mxCell>
        <mxCell id="IjSkQmt7Pv5R0Hn1wKeA-156" style="edgeStyle=orthogonalEdgeStyle;rounded=0;orthogonalLoop=1;jettySize=auto;html=1;exitX=0.5;exitY=1;exitDx=0;exitDy=0;entryX=0;entryY=0.5;entryDx=0;entryDy=0;endArrow=none;endFill=0;" parent="1" source="IjSkQmt7Pv5R0Hn1wKeA-3" target="IjSkQmt7Pv5R0Hn1wKeA-124" edge="1">
          <mxGeometry relative="1" as="geometry" />
        </mxCell>
        <mxCell id="IjSkQmt7Pv5R0Hn1wKeA-166" style="edgeStyle=orthogonalEdgeStyle;rounded=0;orthogonalLoop=1;jettySize=auto;html=1;exitX=1;exitY=0.75;exitDx=0;exitDy=0;entryX=0.5;entryY=0;entryDx=0;entryDy=0;endArrow=none;endFill=0;" parent="1" source="IjSkQmt7Pv5R0Hn1wKeA-3" target="IjSkQmt7Pv5R0Hn1wKeA-167" edge="1">
          <mxGeometry relative="1" as="geometry">
            <mxPoint x="930" y="310" as="targetPoint" />
            <Array as="points">
              <mxPoint x="470" y="210" />
              <mxPoint x="930" y="210" />
            </Array>
          </mxGeometry>
        </mxCell>
        <mxCell id="IjSkQmt7Pv5R0Hn1wKeA-3" value="usuario" style="rounded=1;whiteSpace=wrap;html=1;" parent="1" vertex="1">
          <mxGeometry x="350" y="150" width="120" height="60" as="geometry" />
        </mxCell>
        <mxCell id="IjSkQmt7Pv5R0Hn1wKeA-9" style="edgeStyle=orthogonalEdgeStyle;rounded=0;orthogonalLoop=1;jettySize=auto;html=1;exitX=0.5;exitY=0;exitDx=0;exitDy=0;entryX=0.703;entryY=0.994;entryDx=0;entryDy=0;endArrow=none;endFill=0;entryPerimeter=0;" parent="1" source="IjSkQmt7Pv5R0Hn1wKeA-5" target="IjSkQmt7Pv5R0Hn1wKeA-3" edge="1">
          <mxGeometry relative="1" as="geometry" />
        </mxCell>
        <mxCell id="IjSkQmt7Pv5R0Hn1wKeA-10" style="edgeStyle=orthogonalEdgeStyle;rounded=0;orthogonalLoop=1;jettySize=auto;html=1;exitX=0;exitY=0.5;exitDx=0;exitDy=0;entryX=1;entryY=0.5;entryDx=0;entryDy=0;endArrow=none;endFill=0;" parent="1" source="IjSkQmt7Pv5R0Hn1wKeA-6" target="IjSkQmt7Pv5R0Hn1wKeA-3" edge="1">
          <mxGeometry relative="1" as="geometry" />
        </mxCell>
        <mxCell id="IjSkQmt7Pv5R0Hn1wKeA-6" value="contrasenia" style="ellipse;whiteSpace=wrap;html=1;" parent="1" vertex="1">
          <mxGeometry x="520" y="155" width="90" height="50" as="geometry" />
        </mxCell>
        <mxCell id="IjSkQmt7Pv5R0Hn1wKeA-8" value="email" style="ellipse;whiteSpace=wrap;html=1;" parent="1" vertex="1">
          <mxGeometry x="365" y="60" width="90" height="50" as="geometry" />
        </mxCell>
        <mxCell id="IjSkQmt7Pv5R0Hn1wKeA-28" style="edgeStyle=orthogonalEdgeStyle;rounded=0;orthogonalLoop=1;jettySize=auto;html=1;exitX=0.5;exitY=0;exitDx=0;exitDy=0;entryX=0.5;entryY=1;entryDx=0;entryDy=0;endArrow=none;endFill=0;" parent="1" source="IjSkQmt7Pv5R0Hn1wKeA-13" target="IjSkQmt7Pv5R0Hn1wKeA-18" edge="1">
          <mxGeometry relative="1" as="geometry" />
        </mxCell>
        <mxCell id="IjSkQmt7Pv5R0Hn1wKeA-33" style="edgeStyle=orthogonalEdgeStyle;rounded=0;orthogonalLoop=1;jettySize=auto;html=1;exitX=0.5;exitY=1;exitDx=0;exitDy=0;entryX=0.5;entryY=0;entryDx=0;entryDy=0;endArrow=none;endFill=0;" parent="1" source="IjSkQmt7Pv5R0Hn1wKeA-13" target="IjSkQmt7Pv5R0Hn1wKeA-17" edge="1">
          <mxGeometry relative="1" as="geometry" />
        </mxCell>
        <mxCell id="IjSkQmt7Pv5R0Hn1wKeA-34" style="edgeStyle=orthogonalEdgeStyle;rounded=0;orthogonalLoop=1;jettySize=auto;html=1;exitX=0;exitY=0.5;exitDx=0;exitDy=0;entryX=1;entryY=0.5;entryDx=0;entryDy=0;endArrow=none;endFill=0;" parent="1" source="IjSkQmt7Pv5R0Hn1wKeA-13" target="IjSkQmt7Pv5R0Hn1wKeA-23" edge="1">
          <mxGeometry relative="1" as="geometry" />
        </mxCell>
        <mxCell id="IjSkQmt7Pv5R0Hn1wKeA-39" style="edgeStyle=orthogonalEdgeStyle;rounded=0;orthogonalLoop=1;jettySize=auto;html=1;entryX=0;entryY=1;entryDx=0;entryDy=0;endArrow=none;endFill=0;" parent="1" source="IjSkQmt7Pv5R0Hn1wKeA-13" target="IjSkQmt7Pv5R0Hn1wKeA-38" edge="1">
          <mxGeometry relative="1" as="geometry" />
        </mxCell>
        <mxCell id="IjSkQmt7Pv5R0Hn1wKeA-13" value="post" style="rounded=1;whiteSpace=wrap;html=1;" parent="1" vertex="1">
          <mxGeometry x="-150" y="370" width="120" height="60" as="geometry" />
        </mxCell>
        <mxCell id="IjSkQmt7Pv5R0Hn1wKeA-23" value="contenido&lt;br&gt;" style="ellipse;whiteSpace=wrap;html=1;" parent="1" vertex="1">
          <mxGeometry x="-260" y="375" width="90" height="50" as="geometry" />
        </mxCell>
        <mxCell id="IjSkQmt7Pv5R0Hn1wKeA-29" value="" style="group" parent="1" vertex="1" connectable="0">
          <mxGeometry x="520" y="250" width="90" height="50" as="geometry" />
        </mxCell>
        <mxCell id="IjSkQmt7Pv5R0Hn1wKeA-5" value="nombre" style="ellipse;whiteSpace=wrap;html=1;" parent="IjSkQmt7Pv5R0Hn1wKeA-29" vertex="1">
          <mxGeometry width="90" height="50" as="geometry" />
        </mxCell>
        <mxCell id="IjSkQmt7Pv5R0Hn1wKeA-15" value="" style="endArrow=none;html=1;rounded=0;" parent="IjSkQmt7Pv5R0Hn1wKeA-29" edge="1">
          <mxGeometry width="50" height="50" relative="1" as="geometry">
            <mxPoint x="23" y="39.31" as="sourcePoint" />
            <mxPoint x="73" y="39.31" as="targetPoint" />
          </mxGeometry>
        </mxCell>
        <mxCell id="IjSkQmt7Pv5R0Hn1wKeA-30" value="" style="group" parent="1" vertex="1" connectable="0">
          <mxGeometry x="-135" y="290" width="90" height="50" as="geometry" />
        </mxCell>
        <mxCell id="IjSkQmt7Pv5R0Hn1wKeA-18" value="id" style="ellipse;whiteSpace=wrap;html=1;" parent="IjSkQmt7Pv5R0Hn1wKeA-30" vertex="1">
          <mxGeometry width="90" height="50" as="geometry" />
        </mxCell>
        <mxCell id="IjSkQmt7Pv5R0Hn1wKeA-19" value="" style="endArrow=none;html=1;rounded=0;" parent="IjSkQmt7Pv5R0Hn1wKeA-30" edge="1">
          <mxGeometry width="50" height="50" relative="1" as="geometry">
            <mxPoint x="21" y="40" as="sourcePoint" />
            <mxPoint x="71" y="40" as="targetPoint" />
          </mxGeometry>
        </mxCell>
        <mxCell id="IjSkQmt7Pv5R0Hn1wKeA-31" value="" style="group" parent="1" vertex="1" connectable="0">
          <mxGeometry x="-225" y="480" width="90" height="60" as="geometry" />
        </mxCell>
        <mxCell id="IjSkQmt7Pv5R0Hn1wKeA-16" value="" style="endArrow=none;html=1;rounded=0;" parent="IjSkQmt7Pv5R0Hn1wKeA-31" edge="1">
          <mxGeometry width="50" height="50" relative="1" as="geometry">
            <mxPoint x="20" y="50" as="sourcePoint" />
            <mxPoint x="70" y="50" as="targetPoint" />
          </mxGeometry>
        </mxCell>
        <mxCell id="IjSkQmt7Pv5R0Hn1wKeA-17" value="nombre_usuario" style="ellipse;whiteSpace=wrap;html=1;" parent="IjSkQmt7Pv5R0Hn1wKeA-31" vertex="1">
          <mxGeometry width="90" height="60" as="geometry" />
        </mxCell>
        <mxCell id="IjSkQmt7Pv5R0Hn1wKeA-20" value="" style="endArrow=none;html=1;rounded=0;" parent="IjSkQmt7Pv5R0Hn1wKeA-31" edge="1">
          <mxGeometry width="50" height="50" relative="1" as="geometry">
            <mxPoint x="20" y="50" as="sourcePoint" />
            <mxPoint x="70" y="50" as="targetPoint" />
          </mxGeometry>
        </mxCell>
        <mxCell id="IjSkQmt7Pv5R0Hn1wKeA-21" value="" style="endArrow=none;html=1;rounded=0;" parent="IjSkQmt7Pv5R0Hn1wKeA-31" edge="1">
          <mxGeometry width="50" height="50" relative="1" as="geometry">
            <mxPoint x="20" y="40" as="sourcePoint" />
            <mxPoint x="70" y="40" as="targetPoint" />
          </mxGeometry>
        </mxCell>
        <mxCell id="IjSkQmt7Pv5R0Hn1wKeA-58" style="edgeStyle=orthogonalEdgeStyle;rounded=0;orthogonalLoop=1;jettySize=auto;html=1;exitX=1;exitY=1;exitDx=0;exitDy=0;entryX=0;entryY=0.5;entryDx=0;entryDy=0;endArrow=none;endFill=0;" parent="1" source="IjSkQmt7Pv5R0Hn1wKeA-38" target="IjSkQmt7Pv5R0Hn1wKeA-49" edge="1">
          <mxGeometry relative="1" as="geometry" />
        </mxCell>
        <mxCell id="IjSkQmt7Pv5R0Hn1wKeA-59" style="edgeStyle=orthogonalEdgeStyle;rounded=0;orthogonalLoop=1;jettySize=auto;html=1;exitX=0;exitY=0;exitDx=0;exitDy=0;entryX=0.983;entryY=0.383;entryDx=0;entryDy=0;endArrow=none;endFill=0;entryPerimeter=0;" parent="1" source="IjSkQmt7Pv5R0Hn1wKeA-38" target="IjSkQmt7Pv5R0Hn1wKeA-44" edge="1">
          <mxGeometry relative="1" as="geometry" />
        </mxCell>
        <mxCell id="IjSkQmt7Pv5R0Hn1wKeA-60" style="edgeStyle=orthogonalEdgeStyle;rounded=0;orthogonalLoop=1;jettySize=auto;html=1;exitX=1;exitY=0;exitDx=0;exitDy=0;entryX=0.5;entryY=1;entryDx=0;entryDy=0;endArrow=none;endFill=0;" parent="1" source="IjSkQmt7Pv5R0Hn1wKeA-38" target="IjSkQmt7Pv5R0Hn1wKeA-46" edge="1">
          <mxGeometry relative="1" as="geometry">
            <Array as="points">
              <mxPoint x="220" y="300" />
              <mxPoint x="255" y="300" />
            </Array>
          </mxGeometry>
        </mxCell>
        <mxCell id="IjSkQmt7Pv5R0Hn1wKeA-62" style="edgeStyle=orthogonalEdgeStyle;rounded=0;orthogonalLoop=1;jettySize=auto;html=1;exitX=0.5;exitY=1;exitDx=0;exitDy=0;entryX=0.5;entryY=0;entryDx=0;entryDy=0;endArrow=none;endFill=0;" parent="1" source="IjSkQmt7Pv5R0Hn1wKeA-38" target="IjSkQmt7Pv5R0Hn1wKeA-54" edge="1">
          <mxGeometry relative="1" as="geometry" />
        </mxCell>
        <mxCell id="IjSkQmt7Pv5R0Hn1wKeA-38" value="comentar" style="rhombus;whiteSpace=wrap;html=1;" parent="1" vertex="1">
          <mxGeometry x="160" y="295" width="80" height="80" as="geometry" />
        </mxCell>
        <mxCell id="IjSkQmt7Pv5R0Hn1wKeA-43" value="" style="group" parent="1" vertex="1" connectable="0">
          <mxGeometry x="80" y="250" width="90" height="50" as="geometry" />
        </mxCell>
        <mxCell id="IjSkQmt7Pv5R0Hn1wKeA-44" value="id" style="ellipse;whiteSpace=wrap;html=1;" parent="IjSkQmt7Pv5R0Hn1wKeA-43" vertex="1">
          <mxGeometry width="90" height="50" as="geometry" />
        </mxCell>
        <mxCell id="IjSkQmt7Pv5R0Hn1wKeA-45" value="" style="endArrow=none;html=1;rounded=0;" parent="IjSkQmt7Pv5R0Hn1wKeA-43" edge="1">
          <mxGeometry width="50" height="50" relative="1" as="geometry">
            <mxPoint x="21" y="40" as="sourcePoint" />
            <mxPoint x="71" y="40" as="targetPoint" />
          </mxGeometry>
        </mxCell>
        <mxCell id="IjSkQmt7Pv5R0Hn1wKeA-46" value="contenido&lt;br&gt;" style="ellipse;whiteSpace=wrap;html=1;" parent="1" vertex="1">
          <mxGeometry x="210" y="220" width="90" height="50" as="geometry" />
        </mxCell>
        <mxCell id="IjSkQmt7Pv5R0Hn1wKeA-47" value="" style="group" parent="1" vertex="1" connectable="0">
          <mxGeometry x="280" y="420" width="90" height="60" as="geometry" />
        </mxCell>
        <mxCell id="IjSkQmt7Pv5R0Hn1wKeA-48" value="" style="endArrow=none;html=1;rounded=0;" parent="IjSkQmt7Pv5R0Hn1wKeA-47" edge="1">
          <mxGeometry width="50" height="50" relative="1" as="geometry">
            <mxPoint x="20" y="50" as="sourcePoint" />
            <mxPoint x="70" y="50" as="targetPoint" />
          </mxGeometry>
        </mxCell>
        <mxCell id="IjSkQmt7Pv5R0Hn1wKeA-49" value="nombre_usuario" style="ellipse;whiteSpace=wrap;html=1;" parent="IjSkQmt7Pv5R0Hn1wKeA-47" vertex="1">
          <mxGeometry width="90" height="60" as="geometry" />
        </mxCell>
        <mxCell id="IjSkQmt7Pv5R0Hn1wKeA-50" value="" style="endArrow=none;html=1;rounded=0;" parent="IjSkQmt7Pv5R0Hn1wKeA-47" edge="1">
          <mxGeometry width="50" height="50" relative="1" as="geometry">
            <mxPoint x="20" y="50" as="sourcePoint" />
            <mxPoint x="70" y="50" as="targetPoint" />
          </mxGeometry>
        </mxCell>
        <mxCell id="IjSkQmt7Pv5R0Hn1wKeA-51" value="" style="endArrow=none;html=1;rounded=0;" parent="IjSkQmt7Pv5R0Hn1wKeA-47" edge="1">
          <mxGeometry width="50" height="50" relative="1" as="geometry">
            <mxPoint x="20" y="40" as="sourcePoint" />
            <mxPoint x="70" y="40" as="targetPoint" />
          </mxGeometry>
        </mxCell>
        <mxCell id="IjSkQmt7Pv5R0Hn1wKeA-52" value="" style="group" parent="1" vertex="1" connectable="0">
          <mxGeometry x="150" y="430" width="90" height="60" as="geometry" />
        </mxCell>
        <mxCell id="IjSkQmt7Pv5R0Hn1wKeA-53" value="" style="endArrow=none;html=1;rounded=0;" parent="IjSkQmt7Pv5R0Hn1wKeA-52" edge="1">
          <mxGeometry width="50" height="50" relative="1" as="geometry">
            <mxPoint x="20" y="50" as="sourcePoint" />
            <mxPoint x="70" y="50" as="targetPoint" />
          </mxGeometry>
        </mxCell>
        <mxCell id="IjSkQmt7Pv5R0Hn1wKeA-54" value="id_post" style="ellipse;whiteSpace=wrap;html=1;" parent="IjSkQmt7Pv5R0Hn1wKeA-52" vertex="1">
          <mxGeometry width="90" height="60" as="geometry" />
        </mxCell>
        <mxCell id="IjSkQmt7Pv5R0Hn1wKeA-55" value="" style="endArrow=none;html=1;rounded=0;" parent="IjSkQmt7Pv5R0Hn1wKeA-52" edge="1">
          <mxGeometry width="50" height="50" relative="1" as="geometry">
            <mxPoint x="20" y="50" as="sourcePoint" />
            <mxPoint x="70" y="50" as="targetPoint" />
          </mxGeometry>
        </mxCell>
        <mxCell id="IjSkQmt7Pv5R0Hn1wKeA-56" value="" style="endArrow=none;html=1;rounded=0;" parent="IjSkQmt7Pv5R0Hn1wKeA-52" edge="1">
          <mxGeometry width="50" height="50" relative="1" as="geometry">
            <mxPoint x="20" y="40" as="sourcePoint" />
            <mxPoint x="70" y="40" as="targetPoint" />
          </mxGeometry>
        </mxCell>
        <mxCell id="IjSkQmt7Pv5R0Hn1wKeA-64" value="1:N" style="text;html=1;align=center;verticalAlign=middle;resizable=0;points=[];autosize=1;strokeColor=none;fillColor=none;" parent="1" vertex="1">
          <mxGeometry x="-30" y="338" width="40" height="30" as="geometry" />
        </mxCell>
        <mxCell id="IjSkQmt7Pv5R0Hn1wKeA-65" value="1:1" style="text;html=1;align=center;verticalAlign=middle;resizable=0;points=[];autosize=1;strokeColor=none;fillColor=none;" parent="1" vertex="1">
          <mxGeometry x="310" y="68" width="40" height="30" as="geometry" />
        </mxCell>
        <mxCell id="IjSkQmt7Pv5R0Hn1wKeA-66" value="N:N" style="text;html=1;align=center;verticalAlign=middle;resizable=0;points=[];autosize=1;strokeColor=none;fillColor=none;" parent="1" vertex="1">
          <mxGeometry x="10" y="368" width="40" height="30" as="geometry" />
        </mxCell>
        <mxCell id="IjSkQmt7Pv5R0Hn1wKeA-67" value="N:N" style="text;html=1;align=center;verticalAlign=middle;resizable=0;points=[];autosize=1;strokeColor=none;fillColor=none;" parent="1" vertex="1">
          <mxGeometry x="310" y="298" width="40" height="30" as="geometry" />
        </mxCell>
        <mxCell id="IjSkQmt7Pv5R0Hn1wKeA-68" style="edgeStyle=orthogonalEdgeStyle;rounded=0;orthogonalLoop=1;jettySize=auto;html=1;exitX=1;exitY=1;exitDx=0;exitDy=0;entryX=0;entryY=0.5;entryDx=0;entryDy=0;endArrow=none;endFill=0;" parent="1" source="IjSkQmt7Pv5R0Hn1wKeA-72" target="IjSkQmt7Pv5R0Hn1wKeA-79" edge="1">
          <mxGeometry relative="1" as="geometry" />
        </mxCell>
        <mxCell id="IjSkQmt7Pv5R0Hn1wKeA-70" style="edgeStyle=orthogonalEdgeStyle;rounded=0;orthogonalLoop=1;jettySize=auto;html=1;exitX=1;exitY=0;exitDx=0;exitDy=0;entryX=0.5;entryY=1;entryDx=0;entryDy=0;endArrow=none;endFill=0;" parent="1" source="IjSkQmt7Pv5R0Hn1wKeA-72" target="IjSkQmt7Pv5R0Hn1wKeA-76" edge="1">
          <mxGeometry relative="1" as="geometry">
            <Array as="points">
              <mxPoint x="210" y="630" />
              <mxPoint x="245" y="630" />
            </Array>
          </mxGeometry>
        </mxCell>
        <mxCell id="IjSkQmt7Pv5R0Hn1wKeA-71" style="edgeStyle=orthogonalEdgeStyle;rounded=0;orthogonalLoop=1;jettySize=auto;html=1;exitX=0.5;exitY=1;exitDx=0;exitDy=0;entryX=0.5;entryY=0;entryDx=0;entryDy=0;endArrow=none;endFill=0;" parent="1" source="IjSkQmt7Pv5R0Hn1wKeA-72" target="IjSkQmt7Pv5R0Hn1wKeA-84" edge="1">
          <mxGeometry relative="1" as="geometry" />
        </mxCell>
        <mxCell id="IjSkQmt7Pv5R0Hn1wKeA-88" style="edgeStyle=orthogonalEdgeStyle;rounded=0;orthogonalLoop=1;jettySize=auto;html=1;exitX=0;exitY=0;exitDx=0;exitDy=0;entryX=1;entryY=0.75;entryDx=0;entryDy=0;endArrow=none;endFill=0;" parent="1" source="IjSkQmt7Pv5R0Hn1wKeA-72" target="IjSkQmt7Pv5R0Hn1wKeA-13" edge="1">
          <mxGeometry relative="1" as="geometry" />
        </mxCell>
        <mxCell id="IjSkQmt7Pv5R0Hn1wKeA-89" style="edgeStyle=orthogonalEdgeStyle;rounded=0;orthogonalLoop=1;jettySize=auto;html=1;exitX=1;exitY=0.5;exitDx=0;exitDy=0;entryX=0.25;entryY=1;entryDx=0;entryDy=0;endArrow=none;endFill=0;" parent="1" source="IjSkQmt7Pv5R0Hn1wKeA-72" target="IjSkQmt7Pv5R0Hn1wKeA-3" edge="1">
          <mxGeometry relative="1" as="geometry">
            <Array as="points">
              <mxPoint x="380" y="665" />
            </Array>
          </mxGeometry>
        </mxCell>
        <mxCell id="cQNifPGeWmKFVKGzTd0m-6" style="edgeStyle=orthogonalEdgeStyle;rounded=0;orthogonalLoop=1;jettySize=auto;html=1;exitX=0.5;exitY=0;exitDx=0;exitDy=0;entryX=1;entryY=0.5;entryDx=0;entryDy=0;endArrow=none;endFill=0;" edge="1" parent="1" source="IjSkQmt7Pv5R0Hn1wKeA-72" target="cQNifPGeWmKFVKGzTd0m-4">
          <mxGeometry relative="1" as="geometry" />
        </mxCell>
        <mxCell id="IjSkQmt7Pv5R0Hn1wKeA-72" value="valorar" style="rhombus;whiteSpace=wrap;html=1;" parent="1" vertex="1">
          <mxGeometry x="150" y="625" width="80" height="80" as="geometry" />
        </mxCell>
        <mxCell id="IjSkQmt7Pv5R0Hn1wKeA-76" value="likeODislike" style="ellipse;whiteSpace=wrap;html=1;" parent="1" vertex="1">
          <mxGeometry x="200" y="550" width="90" height="50" as="geometry" />
        </mxCell>
        <mxCell id="IjSkQmt7Pv5R0Hn1wKeA-77" value="" style="group" parent="1" vertex="1" connectable="0">
          <mxGeometry x="280" y="720" width="90" height="60" as="geometry" />
        </mxCell>
        <mxCell id="IjSkQmt7Pv5R0Hn1wKeA-78" value="" style="endArrow=none;html=1;rounded=0;" parent="IjSkQmt7Pv5R0Hn1wKeA-77" edge="1">
          <mxGeometry width="50" height="50" relative="1" as="geometry">
            <mxPoint x="20" y="50" as="sourcePoint" />
            <mxPoint x="70" y="50" as="targetPoint" />
          </mxGeometry>
        </mxCell>
        <mxCell id="IjSkQmt7Pv5R0Hn1wKeA-79" value="nombre_usuario" style="ellipse;whiteSpace=wrap;html=1;" parent="IjSkQmt7Pv5R0Hn1wKeA-77" vertex="1">
          <mxGeometry width="90" height="60" as="geometry" />
        </mxCell>
        <mxCell id="IjSkQmt7Pv5R0Hn1wKeA-80" value="" style="endArrow=none;html=1;rounded=0;" parent="IjSkQmt7Pv5R0Hn1wKeA-77" edge="1">
          <mxGeometry width="50" height="50" relative="1" as="geometry">
            <mxPoint x="20" y="50" as="sourcePoint" />
            <mxPoint x="70" y="50" as="targetPoint" />
          </mxGeometry>
        </mxCell>
        <mxCell id="IjSkQmt7Pv5R0Hn1wKeA-81" value="" style="endArrow=none;html=1;rounded=0;" parent="IjSkQmt7Pv5R0Hn1wKeA-77" edge="1">
          <mxGeometry width="50" height="50" relative="1" as="geometry">
            <mxPoint x="20" y="40" as="sourcePoint" />
            <mxPoint x="70" y="40" as="targetPoint" />
          </mxGeometry>
        </mxCell>
        <mxCell id="IjSkQmt7Pv5R0Hn1wKeA-82" value="" style="group" parent="1" vertex="1" connectable="0">
          <mxGeometry x="145" y="760" width="90" height="60" as="geometry" />
        </mxCell>
        <mxCell id="IjSkQmt7Pv5R0Hn1wKeA-83" value="" style="endArrow=none;html=1;rounded=0;" parent="IjSkQmt7Pv5R0Hn1wKeA-82" edge="1">
          <mxGeometry width="50" height="50" relative="1" as="geometry">
            <mxPoint x="20" y="50" as="sourcePoint" />
            <mxPoint x="70" y="50" as="targetPoint" />
          </mxGeometry>
        </mxCell>
        <mxCell id="IjSkQmt7Pv5R0Hn1wKeA-84" value="id_post" style="ellipse;whiteSpace=wrap;html=1;" parent="IjSkQmt7Pv5R0Hn1wKeA-82" vertex="1">
          <mxGeometry width="90" height="60" as="geometry" />
        </mxCell>
        <mxCell id="IjSkQmt7Pv5R0Hn1wKeA-85" value="" style="endArrow=none;html=1;rounded=0;" parent="IjSkQmt7Pv5R0Hn1wKeA-82" edge="1">
          <mxGeometry width="50" height="50" relative="1" as="geometry">
            <mxPoint x="20" y="50" as="sourcePoint" />
            <mxPoint x="70" y="50" as="targetPoint" />
          </mxGeometry>
        </mxCell>
        <mxCell id="IjSkQmt7Pv5R0Hn1wKeA-86" value="" style="endArrow=none;html=1;rounded=0;" parent="IjSkQmt7Pv5R0Hn1wKeA-82" edge="1">
          <mxGeometry width="50" height="50" relative="1" as="geometry">
            <mxPoint x="20" y="40" as="sourcePoint" />
            <mxPoint x="70" y="40" as="targetPoint" />
          </mxGeometry>
        </mxCell>
        <mxCell id="IjSkQmt7Pv5R0Hn1wKeA-114" style="edgeStyle=orthogonalEdgeStyle;rounded=0;orthogonalLoop=1;jettySize=auto;html=1;exitX=0.5;exitY=1;exitDx=0;exitDy=0;entryX=0.5;entryY=0;entryDx=0;entryDy=0;endArrow=none;endFill=0;" parent="1" source="IjSkQmt7Pv5R0Hn1wKeA-90" target="IjSkQmt7Pv5R0Hn1wKeA-102" edge="1">
          <mxGeometry relative="1" as="geometry" />
        </mxCell>
        <mxCell id="IjSkQmt7Pv5R0Hn1wKeA-115" style="edgeStyle=orthogonalEdgeStyle;rounded=0;orthogonalLoop=1;jettySize=auto;html=1;exitX=1;exitY=0.5;exitDx=0;exitDy=0;entryX=0;entryY=0.5;entryDx=0;entryDy=0;endArrow=none;endFill=0;" parent="1" source="IjSkQmt7Pv5R0Hn1wKeA-90" target="IjSkQmt7Pv5R0Hn1wKeA-99" edge="1">
          <mxGeometry relative="1" as="geometry" />
        </mxCell>
        <mxCell id="IjSkQmt7Pv5R0Hn1wKeA-116" style="edgeStyle=orthogonalEdgeStyle;rounded=0;orthogonalLoop=1;jettySize=auto;html=1;exitX=0.75;exitY=0;exitDx=0;exitDy=0;entryX=0.5;entryY=1;entryDx=0;entryDy=0;endArrow=none;endFill=0;" parent="1" source="IjSkQmt7Pv5R0Hn1wKeA-90" target="IjSkQmt7Pv5R0Hn1wKeA-92" edge="1">
          <mxGeometry relative="1" as="geometry" />
        </mxCell>
        <mxCell id="IjSkQmt7Pv5R0Hn1wKeA-121" style="edgeStyle=orthogonalEdgeStyle;rounded=0;orthogonalLoop=1;jettySize=auto;html=1;exitX=0.25;exitY=0;exitDx=0;exitDy=0;endArrow=none;endFill=0;" parent="1" source="IjSkQmt7Pv5R0Hn1wKeA-90" edge="1">
          <mxGeometry relative="1" as="geometry">
            <mxPoint x="660.1111111111111" y="-59.99999999999977" as="targetPoint" />
          </mxGeometry>
        </mxCell>
        <mxCell id="IjSkQmt7Pv5R0Hn1wKeA-90" value="mensaje" style="rounded=1;whiteSpace=wrap;html=1;" parent="1" vertex="1">
          <mxGeometry x="630" y="-20" width="120" height="60" as="geometry" />
        </mxCell>
        <mxCell id="IjSkQmt7Pv5R0Hn1wKeA-91" value="" style="group" parent="1" vertex="1" connectable="0">
          <mxGeometry x="670" y="-95" width="90" height="50" as="geometry" />
        </mxCell>
        <mxCell id="IjSkQmt7Pv5R0Hn1wKeA-92" value="id" style="ellipse;whiteSpace=wrap;html=1;" parent="IjSkQmt7Pv5R0Hn1wKeA-91" vertex="1">
          <mxGeometry width="90" height="50" as="geometry" />
        </mxCell>
        <mxCell id="IjSkQmt7Pv5R0Hn1wKeA-93" value="" style="endArrow=none;html=1;rounded=0;" parent="IjSkQmt7Pv5R0Hn1wKeA-91" edge="1">
          <mxGeometry width="50" height="50" relative="1" as="geometry">
            <mxPoint x="21" y="40" as="sourcePoint" />
            <mxPoint x="71" y="40" as="targetPoint" />
          </mxGeometry>
        </mxCell>
        <mxCell id="IjSkQmt7Pv5R0Hn1wKeA-97" value="N:N" style="text;html=1;align=center;verticalAlign=middle;resizable=0;points=[];autosize=1;strokeColor=none;fillColor=none;" parent="1" vertex="1">
          <mxGeometry x="60" y="420" width="40" height="30" as="geometry" />
        </mxCell>
        <mxCell id="IjSkQmt7Pv5R0Hn1wKeA-98" value="N:N" style="text;html=1;align=center;verticalAlign=middle;resizable=0;points=[];autosize=1;strokeColor=none;fillColor=none;" parent="1" vertex="1">
          <mxGeometry x="470" y="205" width="40" height="30" as="geometry" />
        </mxCell>
        <mxCell id="IjSkQmt7Pv5R0Hn1wKeA-99" value="contenido&lt;br&gt;" style="ellipse;whiteSpace=wrap;html=1;" parent="1" vertex="1">
          <mxGeometry x="780" y="-15" width="90" height="50" as="geometry" />
        </mxCell>
        <mxCell id="IjSkQmt7Pv5R0Hn1wKeA-100" value="" style="group" parent="1" vertex="1" connectable="0">
          <mxGeometry x="645" y="80" width="90" height="60" as="geometry" />
        </mxCell>
        <mxCell id="IjSkQmt7Pv5R0Hn1wKeA-101" value="" style="endArrow=none;html=1;rounded=0;" parent="IjSkQmt7Pv5R0Hn1wKeA-100" edge="1">
          <mxGeometry width="50" height="50" relative="1" as="geometry">
            <mxPoint x="20" y="50" as="sourcePoint" />
            <mxPoint x="70" y="50" as="targetPoint" />
          </mxGeometry>
        </mxCell>
        <mxCell id="IjSkQmt7Pv5R0Hn1wKeA-102" value="nombre_emisor" style="ellipse;whiteSpace=wrap;html=1;" parent="IjSkQmt7Pv5R0Hn1wKeA-100" vertex="1">
          <mxGeometry width="90" height="60" as="geometry" />
        </mxCell>
        <mxCell id="IjSkQmt7Pv5R0Hn1wKeA-103" value="" style="endArrow=none;html=1;rounded=0;" parent="IjSkQmt7Pv5R0Hn1wKeA-100" edge="1">
          <mxGeometry width="50" height="50" relative="1" as="geometry">
            <mxPoint x="20" y="50" as="sourcePoint" />
            <mxPoint x="70" y="50" as="targetPoint" />
          </mxGeometry>
        </mxCell>
        <mxCell id="IjSkQmt7Pv5R0Hn1wKeA-104" value="" style="endArrow=none;html=1;rounded=0;" parent="IjSkQmt7Pv5R0Hn1wKeA-100" edge="1">
          <mxGeometry width="50" height="50" relative="1" as="geometry">
            <mxPoint x="20" y="40" as="sourcePoint" />
            <mxPoint x="70" y="40" as="targetPoint" />
          </mxGeometry>
        </mxCell>
        <mxCell id="IjSkQmt7Pv5R0Hn1wKeA-105" value="" style="group" parent="1" vertex="1" connectable="0">
          <mxGeometry x="550" y="-95" width="110" height="60" as="geometry" />
        </mxCell>
        <mxCell id="IjSkQmt7Pv5R0Hn1wKeA-106" value="" style="endArrow=none;html=1;rounded=0;" parent="IjSkQmt7Pv5R0Hn1wKeA-105" edge="1">
          <mxGeometry width="50" height="50" relative="1" as="geometry">
            <mxPoint x="24.444444444444446" y="50" as="sourcePoint" />
            <mxPoint x="85.55555555555557" y="50" as="targetPoint" />
          </mxGeometry>
        </mxCell>
        <mxCell id="IjSkQmt7Pv5R0Hn1wKeA-107" value="nombre_remitente" style="ellipse;whiteSpace=wrap;html=1;" parent="IjSkQmt7Pv5R0Hn1wKeA-105" vertex="1">
          <mxGeometry width="110.00000000000001" height="60" as="geometry" />
        </mxCell>
        <mxCell id="IjSkQmt7Pv5R0Hn1wKeA-108" value="" style="endArrow=none;html=1;rounded=0;" parent="IjSkQmt7Pv5R0Hn1wKeA-105" edge="1">
          <mxGeometry width="50" height="50" relative="1" as="geometry">
            <mxPoint x="24.444444444444446" y="50" as="sourcePoint" />
            <mxPoint x="85.55555555555557" y="50" as="targetPoint" />
          </mxGeometry>
        </mxCell>
        <mxCell id="IjSkQmt7Pv5R0Hn1wKeA-109" value="" style="endArrow=none;html=1;rounded=0;" parent="IjSkQmt7Pv5R0Hn1wKeA-105" edge="1">
          <mxGeometry width="50" height="50" relative="1" as="geometry">
            <mxPoint x="24.444444444444446" y="40" as="sourcePoint" />
            <mxPoint x="85.55555555555557" y="40" as="targetPoint" />
          </mxGeometry>
        </mxCell>
        <mxCell id="IjSkQmt7Pv5R0Hn1wKeA-111" value="1:N" style="text;html=1;align=center;verticalAlign=middle;resizable=0;points=[];autosize=1;strokeColor=none;fillColor=none;" parent="1" vertex="1">
          <mxGeometry x="570" y="-20" width="40" height="30" as="geometry" />
        </mxCell>
        <mxCell id="IjSkQmt7Pv5R0Hn1wKeA-112" value="1:1" style="text;html=1;align=center;verticalAlign=middle;resizable=0;points=[];autosize=1;strokeColor=none;fillColor=none;" parent="1" vertex="1">
          <mxGeometry x="430" y="118" width="40" height="30" as="geometry" />
        </mxCell>
        <mxCell id="IjSkQmt7Pv5R0Hn1wKeA-122" value="adminONo" style="ellipse;whiteSpace=wrap;html=1;" parent="1" vertex="1">
          <mxGeometry x="220" y="140" width="90" height="50" as="geometry" />
        </mxCell>
        <mxCell id="IjSkQmt7Pv5R0Hn1wKeA-153" style="edgeStyle=orthogonalEdgeStyle;rounded=0;orthogonalLoop=1;jettySize=auto;html=1;exitX=1;exitY=0.5;exitDx=0;exitDy=0;endArrow=none;endFill=0;" parent="1" source="IjSkQmt7Pv5R0Hn1wKeA-124" target="IjSkQmt7Pv5R0Hn1wKeA-151" edge="1">
          <mxGeometry relative="1" as="geometry" />
        </mxCell>
        <mxCell id="IjSkQmt7Pv5R0Hn1wKeA-164" style="edgeStyle=orthogonalEdgeStyle;rounded=0;orthogonalLoop=1;jettySize=auto;html=1;exitX=0.5;exitY=0;exitDx=0;exitDy=0;entryX=0;entryY=0.5;entryDx=0;entryDy=0;endArrow=none;endFill=0;" parent="1" source="IjSkQmt7Pv5R0Hn1wKeA-124" target="IjSkQmt7Pv5R0Hn1wKeA-161" edge="1">
          <mxGeometry relative="1" as="geometry" />
        </mxCell>
        <mxCell id="IjSkQmt7Pv5R0Hn1wKeA-124" value="pool" style="rounded=1;whiteSpace=wrap;html=1;" parent="1" vertex="1">
          <mxGeometry x="610" y="440" width="120" height="60" as="geometry" />
        </mxCell>
        <mxCell id="IjSkQmt7Pv5R0Hn1wKeA-141" style="edgeStyle=orthogonalEdgeStyle;rounded=0;orthogonalLoop=1;jettySize=auto;html=1;entryX=0;entryY=0.5;entryDx=0;entryDy=0;endArrow=none;endFill=0;" parent="1" source="IjSkQmt7Pv5R0Hn1wKeA-126" target="IjSkQmt7Pv5R0Hn1wKeA-131" edge="1">
          <mxGeometry relative="1" as="geometry" />
        </mxCell>
        <mxCell id="IjSkQmt7Pv5R0Hn1wKeA-142" style="edgeStyle=orthogonalEdgeStyle;rounded=0;orthogonalLoop=1;jettySize=auto;html=1;exitX=0.5;exitY=1;exitDx=0;exitDy=0;entryX=0.5;entryY=0;entryDx=0;entryDy=0;endArrow=none;endFill=0;" parent="1" source="IjSkQmt7Pv5R0Hn1wKeA-126" target="IjSkQmt7Pv5R0Hn1wKeA-128" edge="1">
          <mxGeometry relative="1" as="geometry" />
        </mxCell>
        <mxCell id="IjSkQmt7Pv5R0Hn1wKeA-143" style="edgeStyle=orthogonalEdgeStyle;rounded=0;orthogonalLoop=1;jettySize=auto;html=1;exitX=0;exitY=0.5;exitDx=0;exitDy=0;endArrow=none;endFill=0;" parent="1" source="IjSkQmt7Pv5R0Hn1wKeA-126" target="IjSkQmt7Pv5R0Hn1wKeA-138" edge="1">
          <mxGeometry relative="1" as="geometry" />
        </mxCell>
        <mxCell id="IjSkQmt7Pv5R0Hn1wKeA-144" style="edgeStyle=orthogonalEdgeStyle;rounded=0;orthogonalLoop=1;jettySize=auto;html=1;entryX=0.5;entryY=1;entryDx=0;entryDy=0;endArrow=none;endFill=0;" parent="1" source="IjSkQmt7Pv5R0Hn1wKeA-126" target="IjSkQmt7Pv5R0Hn1wKeA-124" edge="1">
          <mxGeometry relative="1" as="geometry" />
        </mxCell>
        <mxCell id="IjSkQmt7Pv5R0Hn1wKeA-165" style="edgeStyle=orthogonalEdgeStyle;rounded=0;orthogonalLoop=1;jettySize=auto;html=1;exitX=1;exitY=0;exitDx=0;exitDy=0;entryX=0.5;entryY=1;entryDx=0;entryDy=0;endArrow=none;endFill=0;" parent="1" source="IjSkQmt7Pv5R0Hn1wKeA-126" target="IjSkQmt7Pv5R0Hn1wKeA-167" edge="1">
          <mxGeometry relative="1" as="geometry">
            <mxPoint x="960" y="480" as="targetPoint" />
            <Array as="points">
              <mxPoint x="930" y="585" />
            </Array>
          </mxGeometry>
        </mxCell>
        <mxCell id="IjSkQmt7Pv5R0Hn1wKeA-126" value="opcionPool" style="rounded=1;whiteSpace=wrap;html=1;" parent="1" vertex="1">
          <mxGeometry x="610" y="585" width="120" height="60" as="geometry" />
        </mxCell>
        <mxCell id="IjSkQmt7Pv5R0Hn1wKeA-127" value="" style="group" parent="1" vertex="1" connectable="0">
          <mxGeometry x="625" y="680" width="90" height="50" as="geometry" />
        </mxCell>
        <mxCell id="IjSkQmt7Pv5R0Hn1wKeA-128" value="id" style="ellipse;whiteSpace=wrap;html=1;" parent="IjSkQmt7Pv5R0Hn1wKeA-127" vertex="1">
          <mxGeometry width="90" height="50" as="geometry" />
        </mxCell>
        <mxCell id="IjSkQmt7Pv5R0Hn1wKeA-129" value="" style="endArrow=none;html=1;rounded=0;" parent="IjSkQmt7Pv5R0Hn1wKeA-127" edge="1">
          <mxGeometry width="50" height="50" relative="1" as="geometry">
            <mxPoint x="21" y="40" as="sourcePoint" />
            <mxPoint x="71" y="40" as="targetPoint" />
          </mxGeometry>
        </mxCell>
        <mxCell id="IjSkQmt7Pv5R0Hn1wKeA-130" value="" style="group" parent="1" vertex="1" connectable="0">
          <mxGeometry x="780" y="690" width="90" height="50" as="geometry" />
        </mxCell>
        <mxCell id="IjSkQmt7Pv5R0Hn1wKeA-131" value="opcion" style="ellipse;whiteSpace=wrap;html=1;" parent="IjSkQmt7Pv5R0Hn1wKeA-130" vertex="1">
          <mxGeometry width="90" height="50" as="geometry" />
        </mxCell>
        <mxCell id="IjSkQmt7Pv5R0Hn1wKeA-136" value="" style="group" parent="1" vertex="1" connectable="0">
          <mxGeometry x="500" y="670" width="90" height="60" as="geometry" />
        </mxCell>
        <mxCell id="IjSkQmt7Pv5R0Hn1wKeA-137" value="" style="endArrow=none;html=1;rounded=0;" parent="IjSkQmt7Pv5R0Hn1wKeA-136" edge="1">
          <mxGeometry width="50" height="50" relative="1" as="geometry">
            <mxPoint x="20" y="50" as="sourcePoint" />
            <mxPoint x="70" y="50" as="targetPoint" />
          </mxGeometry>
        </mxCell>
        <mxCell id="IjSkQmt7Pv5R0Hn1wKeA-138" value="id_pool" style="ellipse;whiteSpace=wrap;html=1;" parent="IjSkQmt7Pv5R0Hn1wKeA-136" vertex="1">
          <mxGeometry width="90" height="60" as="geometry" />
        </mxCell>
        <mxCell id="IjSkQmt7Pv5R0Hn1wKeA-139" value="" style="endArrow=none;html=1;rounded=0;" parent="IjSkQmt7Pv5R0Hn1wKeA-136" edge="1">
          <mxGeometry width="50" height="50" relative="1" as="geometry">
            <mxPoint x="20" y="50" as="sourcePoint" />
            <mxPoint x="70" y="50" as="targetPoint" />
          </mxGeometry>
        </mxCell>
        <mxCell id="IjSkQmt7Pv5R0Hn1wKeA-140" value="" style="endArrow=none;html=1;rounded=0;" parent="IjSkQmt7Pv5R0Hn1wKeA-136" edge="1">
          <mxGeometry width="50" height="50" relative="1" as="geometry">
            <mxPoint x="20" y="40" as="sourcePoint" />
            <mxPoint x="70" y="40" as="targetPoint" />
          </mxGeometry>
        </mxCell>
        <mxCell id="IjSkQmt7Pv5R0Hn1wKeA-150" value="" style="group" parent="1" vertex="1" connectable="0">
          <mxGeometry x="770" y="445" width="90" height="50" as="geometry" />
        </mxCell>
        <mxCell id="IjSkQmt7Pv5R0Hn1wKeA-151" value="id" style="ellipse;whiteSpace=wrap;html=1;" parent="IjSkQmt7Pv5R0Hn1wKeA-150" vertex="1">
          <mxGeometry width="90" height="50" as="geometry" />
        </mxCell>
        <mxCell id="IjSkQmt7Pv5R0Hn1wKeA-152" value="" style="endArrow=none;html=1;rounded=0;" parent="IjSkQmt7Pv5R0Hn1wKeA-150" edge="1">
          <mxGeometry width="50" height="50" relative="1" as="geometry">
            <mxPoint x="21" y="40" as="sourcePoint" />
            <mxPoint x="71" y="40" as="targetPoint" />
          </mxGeometry>
        </mxCell>
        <mxCell id="IjSkQmt7Pv5R0Hn1wKeA-154" value="1:N" style="text;html=1;align=center;verticalAlign=middle;resizable=0;points=[];autosize=1;strokeColor=none;fillColor=none;" parent="1" vertex="1">
          <mxGeometry x="670" y="560" width="40" height="30" as="geometry" />
        </mxCell>
        <mxCell id="IjSkQmt7Pv5R0Hn1wKeA-155" value="1:1" style="text;html=1;align=center;verticalAlign=middle;resizable=0;points=[];autosize=1;strokeColor=none;fillColor=none;" parent="1" vertex="1">
          <mxGeometry x="670" y="500" width="40" height="30" as="geometry" />
        </mxCell>
        <mxCell id="IjSkQmt7Pv5R0Hn1wKeA-157" value="1:N" style="text;html=1;align=center;verticalAlign=middle;resizable=0;points=[];autosize=1;strokeColor=none;fillColor=none;" parent="1" vertex="1">
          <mxGeometry x="570" y="438" width="40" height="30" as="geometry" />
        </mxCell>
        <mxCell id="IjSkQmt7Pv5R0Hn1wKeA-158" value="1:1" style="text;html=1;align=center;verticalAlign=middle;resizable=0;points=[];autosize=1;strokeColor=none;fillColor=none;" parent="1" vertex="1">
          <mxGeometry x="400" y="230" width="40" height="30" as="geometry" />
        </mxCell>
        <mxCell id="IjSkQmt7Pv5R0Hn1wKeA-159" value="" style="group" parent="1" vertex="1" connectable="0">
          <mxGeometry x="700" y="340" width="90" height="60" as="geometry" />
        </mxCell>
        <mxCell id="IjSkQmt7Pv5R0Hn1wKeA-160" value="" style="endArrow=none;html=1;rounded=0;" parent="IjSkQmt7Pv5R0Hn1wKeA-159" edge="1">
          <mxGeometry width="50" height="50" relative="1" as="geometry">
            <mxPoint x="20" y="50" as="sourcePoint" />
            <mxPoint x="70" y="50" as="targetPoint" />
          </mxGeometry>
        </mxCell>
        <mxCell id="IjSkQmt7Pv5R0Hn1wKeA-161" value="nombre_usuario" style="ellipse;whiteSpace=wrap;html=1;" parent="IjSkQmt7Pv5R0Hn1wKeA-159" vertex="1">
          <mxGeometry width="90" height="60" as="geometry" />
        </mxCell>
        <mxCell id="IjSkQmt7Pv5R0Hn1wKeA-162" value="" style="endArrow=none;html=1;rounded=0;" parent="IjSkQmt7Pv5R0Hn1wKeA-159" edge="1">
          <mxGeometry width="50" height="50" relative="1" as="geometry">
            <mxPoint x="20" y="50" as="sourcePoint" />
            <mxPoint x="70" y="50" as="targetPoint" />
          </mxGeometry>
        </mxCell>
        <mxCell id="IjSkQmt7Pv5R0Hn1wKeA-163" value="" style="endArrow=none;html=1;rounded=0;" parent="IjSkQmt7Pv5R0Hn1wKeA-159" edge="1">
          <mxGeometry width="50" height="50" relative="1" as="geometry">
            <mxPoint x="20" y="40" as="sourcePoint" />
            <mxPoint x="70" y="40" as="targetPoint" />
          </mxGeometry>
        </mxCell>
        <mxCell id="IjSkQmt7Pv5R0Hn1wKeA-186" style="edgeStyle=orthogonalEdgeStyle;rounded=0;orthogonalLoop=1;jettySize=auto;html=1;exitX=0;exitY=0;exitDx=0;exitDy=0;endArrow=none;endFill=0;" parent="1" source="IjSkQmt7Pv5R0Hn1wKeA-167" target="IjSkQmt7Pv5R0Hn1wKeA-184" edge="1">
          <mxGeometry relative="1" as="geometry">
            <Array as="points">
              <mxPoint x="890" y="330" />
              <mxPoint x="890" y="285" />
            </Array>
          </mxGeometry>
        </mxCell>
        <mxCell id="IjSkQmt7Pv5R0Hn1wKeA-187" style="edgeStyle=orthogonalEdgeStyle;rounded=0;orthogonalLoop=1;jettySize=auto;html=1;exitX=1;exitY=0;exitDx=0;exitDy=0;entryX=0;entryY=0.5;entryDx=0;entryDy=0;endArrow=none;endFill=0;" parent="1" source="IjSkQmt7Pv5R0Hn1wKeA-167" target="IjSkQmt7Pv5R0Hn1wKeA-170" edge="1">
          <mxGeometry relative="1" as="geometry">
            <Array as="points">
              <mxPoint x="960" y="330" />
              <mxPoint x="960" y="300" />
            </Array>
          </mxGeometry>
        </mxCell>
        <mxCell id="IjSkQmt7Pv5R0Hn1wKeA-188" style="edgeStyle=orthogonalEdgeStyle;rounded=0;orthogonalLoop=1;jettySize=auto;html=1;exitX=1;exitY=0.5;exitDx=0;exitDy=0;entryX=0.5;entryY=0;entryDx=0;entryDy=0;endArrow=none;endFill=0;" parent="1" source="IjSkQmt7Pv5R0Hn1wKeA-167" target="IjSkQmt7Pv5R0Hn1wKeA-175" edge="1">
          <mxGeometry relative="1" as="geometry" />
        </mxCell>
        <mxCell id="IjSkQmt7Pv5R0Hn1wKeA-167" value="votar" style="rhombus;whiteSpace=wrap;html=1;" parent="1" vertex="1">
          <mxGeometry x="890" y="310" width="80" height="80" as="geometry" />
        </mxCell>
        <mxCell id="IjSkQmt7Pv5R0Hn1wKeA-168" value="" style="group" parent="1" vertex="1" connectable="0">
          <mxGeometry x="980" y="270" width="90" height="60" as="geometry" />
        </mxCell>
        <mxCell id="IjSkQmt7Pv5R0Hn1wKeA-169" value="" style="endArrow=none;html=1;rounded=0;" parent="IjSkQmt7Pv5R0Hn1wKeA-168" edge="1">
          <mxGeometry width="50" height="50" relative="1" as="geometry">
            <mxPoint x="20" y="50" as="sourcePoint" />
            <mxPoint x="70" y="50" as="targetPoint" />
          </mxGeometry>
        </mxCell>
        <mxCell id="IjSkQmt7Pv5R0Hn1wKeA-170" value="nombre_usuario" style="ellipse;whiteSpace=wrap;html=1;" parent="IjSkQmt7Pv5R0Hn1wKeA-168" vertex="1">
          <mxGeometry width="90" height="60" as="geometry" />
        </mxCell>
        <mxCell id="IjSkQmt7Pv5R0Hn1wKeA-171" value="" style="endArrow=none;html=1;rounded=0;" parent="IjSkQmt7Pv5R0Hn1wKeA-168" edge="1">
          <mxGeometry width="50" height="50" relative="1" as="geometry">
            <mxPoint x="20" y="50" as="sourcePoint" />
            <mxPoint x="70" y="50" as="targetPoint" />
          </mxGeometry>
        </mxCell>
        <mxCell id="IjSkQmt7Pv5R0Hn1wKeA-172" value="" style="endArrow=none;html=1;rounded=0;" parent="IjSkQmt7Pv5R0Hn1wKeA-168" edge="1">
          <mxGeometry width="50" height="50" relative="1" as="geometry">
            <mxPoint x="20" y="40" as="sourcePoint" />
            <mxPoint x="70" y="40" as="targetPoint" />
          </mxGeometry>
        </mxCell>
        <mxCell id="IjSkQmt7Pv5R0Hn1wKeA-173" value="" style="group" parent="1" vertex="1" connectable="0">
          <mxGeometry x="980" y="390" width="90" height="60" as="geometry" />
        </mxCell>
        <mxCell id="IjSkQmt7Pv5R0Hn1wKeA-174" value="" style="endArrow=none;html=1;rounded=0;" parent="IjSkQmt7Pv5R0Hn1wKeA-173" edge="1">
          <mxGeometry width="50" height="50" relative="1" as="geometry">
            <mxPoint x="20" y="50" as="sourcePoint" />
            <mxPoint x="70" y="50" as="targetPoint" />
          </mxGeometry>
        </mxCell>
        <mxCell id="IjSkQmt7Pv5R0Hn1wKeA-175" value="id_opcionPool" style="ellipse;whiteSpace=wrap;html=1;" parent="IjSkQmt7Pv5R0Hn1wKeA-173" vertex="1">
          <mxGeometry width="90" height="60" as="geometry" />
        </mxCell>
        <mxCell id="IjSkQmt7Pv5R0Hn1wKeA-176" value="" style="endArrow=none;html=1;rounded=0;" parent="IjSkQmt7Pv5R0Hn1wKeA-173" edge="1">
          <mxGeometry width="50" height="50" relative="1" as="geometry">
            <mxPoint x="20" y="50" as="sourcePoint" />
            <mxPoint x="70" y="50" as="targetPoint" />
          </mxGeometry>
        </mxCell>
        <mxCell id="IjSkQmt7Pv5R0Hn1wKeA-177" value="" style="endArrow=none;html=1;rounded=0;" parent="IjSkQmt7Pv5R0Hn1wKeA-173" edge="1">
          <mxGeometry width="50" height="50" relative="1" as="geometry">
            <mxPoint x="20" y="40" as="sourcePoint" />
            <mxPoint x="70" y="40" as="targetPoint" />
          </mxGeometry>
        </mxCell>
        <mxCell id="IjSkQmt7Pv5R0Hn1wKeA-183" value="" style="group" parent="1" vertex="1" connectable="0">
          <mxGeometry x="780" y="260" width="90" height="50" as="geometry" />
        </mxCell>
        <mxCell id="IjSkQmt7Pv5R0Hn1wKeA-184" value="id" style="ellipse;whiteSpace=wrap;html=1;" parent="IjSkQmt7Pv5R0Hn1wKeA-183" vertex="1">
          <mxGeometry width="90" height="50" as="geometry" />
        </mxCell>
        <mxCell id="IjSkQmt7Pv5R0Hn1wKeA-185" value="" style="endArrow=none;html=1;rounded=0;" parent="IjSkQmt7Pv5R0Hn1wKeA-183" edge="1">
          <mxGeometry width="50" height="50" relative="1" as="geometry">
            <mxPoint x="21" y="40" as="sourcePoint" />
            <mxPoint x="71" y="40" as="targetPoint" />
          </mxGeometry>
        </mxCell>
        <mxCell id="cQNifPGeWmKFVKGzTd0m-3" value="" style="group" vertex="1" connectable="0" parent="1">
          <mxGeometry x="80" y="550" width="90" height="50" as="geometry" />
        </mxCell>
        <mxCell id="cQNifPGeWmKFVKGzTd0m-4" value="id" style="ellipse;whiteSpace=wrap;html=1;" vertex="1" parent="cQNifPGeWmKFVKGzTd0m-3">
          <mxGeometry width="90" height="50" as="geometry" />
        </mxCell>
        <mxCell id="cQNifPGeWmKFVKGzTd0m-5" value="" style="endArrow=none;html=1;rounded=0;" edge="1" parent="cQNifPGeWmKFVKGzTd0m-3">
          <mxGeometry width="50" height="50" relative="1" as="geometry">
            <mxPoint x="21" y="40" as="sourcePoint" />
            <mxPoint x="71" y="40" as="targetPoint" />
          </mxGeometry>
        </mxCell>
      </root>
    </mxGraphModel>
  </diagram>
</mxfile>
